<svg id="visual" viewBox="0 0 960 540" width="960" height="540" xmlns="http://www.w3.org/2000/svg" xmlns:xlink="http://www.w3.org/1999/xlink" version="1.1"><rect x="0" y="0" width="960" height="540" fill="#001220"></rect><defs><linearGradient id="grad1_0" x1="43.8%" y1="100%" x2="100%" y2="0%"><stop offset="14.444444444444446%" stop-color="#fbae3c" stop-opacity="1"></stop><stop offset="85.55555555555554%" stop-color="#fbae3c" stop-opacity="1"></stop></linearGradient></defs><defs><linearGradient id="grad1_1" x1="43.8%" y1="100%" x2="100%" y2="0%"><stop offset="14.444444444444446%" stop-color="#fbae3c" stop-opacity="1"></stop><stop offset="85.55555555555554%" stop-color="#cc5867" stop-opacity="1"></stop></linearGradient></defs><defs><linearGradient id="grad1_2" x1="43.8%" y1="100%" x2="100%" y2="0%"><stop offset="14.444444444444446%" stop-color="#593762" stop-opacity="1"></stop><stop offset="85.55555555555554%" stop-color="#cc5867" stop-opacity="1"></stop></linearGradient></defs><defs><linearGradient id="grad1_3" x1="43.8%" y1="100%" x2="100%" y2="0%"><stop offset="14.444444444444446%" stop-color="#593762" stop-opacity="1"></stop><stop offset="85.55555555555554%" stop-color="#001220" stop-opacity="1"></stop></linearGradient></defs><defs><linearGradient id="grad2_0" x1="0%" y1="100%" x2="56.3%" y2="0%"><stop offset="14.444444444444446%" stop-color="#fbae3c" stop-opacity="1"></stop><stop offset="85.55555555555554%" stop-color="#fbae3c" stop-opacity="1"></stop></linearGradient></defs><defs><linearGradient id="grad2_1" x1="0%" y1="100%" x2="56.3%" y2="0%"><stop offset="14.444444444444446%" stop-color="#cc5867" stop-opacity="1"></stop><stop offset="85.55555555555554%" stop-color="#fbae3c" stop-opacity="1"></stop></linearGradient></defs><defs><linearGradient id="grad2_2" x1="0%" y1="100%" x2="56.3%" y2="0%"><stop offset="14.444444444444446%" stop-color="#cc5867" stop-opacity="1"></stop><stop offset="85.55555555555554%" stop-color="#593762" stop-opacity="1"></stop></linearGradient></defs><defs><linearGradient id="grad2_3" x1="0%" y1="100%" x2="56.3%" y2="0%"><stop offset="14.444444444444446%" stop-color="#001220" stop-opacity="1"></stop><stop offset="85.55555555555554%" stop-color="#593762" stop-opacity="1"></stop></linearGradient></defs><g transform="translate(960, 540)"><path d="M-351 0C-353.6 -53.4 -356.1 -106.7 -324.3 -134.3C-292.4 -161.9 -226.2 -163.8 -190.9 -190.9C-155.7 -218 -151.4 -270.3 -124.8 -301.2C-98.1 -332.1 -49.1 -341.5 0 -351L0 0Z" fill="#232745"></path><path d="M-263.2 0C-265.2 -40 -267.1 -80 -243.2 -100.7C-219.3 -121.5 -169.6 -122.9 -143.2 -143.2C-116.7 -163.5 -113.6 -202.7 -93.6 -225.9C-73.6 -249 -36.8 -256.1 0 -263.2L0 0Z" fill="#96446e"></path><path d="M-175.5 0C-176.8 -26.7 -178.1 -53.4 -162.1 -67.2C-146.2 -81 -113.1 -81.9 -95.5 -95.5C-77.8 -109 -75.7 -135.2 -62.4 -150.6C-49.1 -166 -24.5 -170.8 0 -175.5L0 0Z" fill="#f17c53"></path><path d="M-87.7 0C-88.4 -13.3 -89 -26.7 -81.1 -33.6C-73.1 -40.5 -56.5 -41 -47.7 -47.7C-38.9 -54.5 -37.9 -67.6 -31.2 -75.3C-24.5 -83 -12.3 -85.4 0 -87.7L0 0Z" fill="#fbae3c"></path></g><g transform="translate(0, 0)"><path d="M351 0C348.6 47 346.2 93.9 324.3 134.3C302.3 174.7 260.8 208.5 218.5 218.5C176.2 228.5 133 214.7 96.4 232.8C59.9 250.9 29.9 301 0 351L0 0Z" fill="#232745"></path><path d="M263.3 0C261.5 35.2 259.7 70.5 243.2 100.7C226.8 131 195.6 156.4 163.9 163.9C132.1 171.4 99.7 161 72.3 174.6C44.9 188.2 22.5 225.7 0 263.3L0 0Z" fill="#96446e"></path><path d="M175.5 0C174.3 23.5 173.1 47 162.1 67.2C151.2 87.4 130.4 104.2 109.2 109.2C88.1 114.2 66.5 107.3 48.2 116.4C29.9 125.5 15 150.5 0 175.5L0 0Z" fill="#f17c53"></path><path d="M87.8 0C87.2 11.7 86.6 23.5 81.1 33.6C75.6 43.7 65.2 52.1 54.6 54.6C44 57.1 33.2 53.7 24.1 58.2C15 62.7 7.5 75.2 0 87.8L0 0Z" fill="#fbae3c"></path></g></svg>